<mxfile host="app.diagrams.net" modified="2023-05-16T18:20:44.223Z" agent="Mozilla/5.0 (Windows NT 10.0; Win64; x64) AppleWebKit/537.36 (KHTML, like Gecko) Chrome/112.0.0.0 Safari/537.36" etag="mTrtbEuIAdw0Cu8uxTtB" version="21.2.8" type="github">
  <diagram id="R2lEEEUBdFMjLlhIrx00" name="Page-1">
    <mxGraphModel dx="880" dy="462" grid="1" gridSize="10" guides="1" tooltips="1" connect="1" arrows="1" fold="1" page="1" pageScale="1" pageWidth="850" pageHeight="1100" background="#000000" math="0" shadow="1" extFonts="Permanent Marker^https://fonts.googleapis.com/css?family=Permanent+Marker">
      <root>
        <mxCell id="0" />
        <mxCell id="1" parent="0" />
        <mxCell id="7E1r3Ql1fIFvwaNYg_f9-37" value="Index.js" style="swimlane;horizontal=0;whiteSpace=wrap;html=1;labelBackgroundColor=none;labelBorderColor=#4C0099;fillColor=#4C0099;fontColor=#ffffff;strokeColor=#3700CC;gradientColor=#000000;gradientDirection=east;swimlaneFillColor=#000000;rounded=1;shadow=0;glass=0;swimlaneLine=1;arcSize=50;fontSize=12;" vertex="1" parent="1">
          <mxGeometry x="335" y="660" width="145" height="110" as="geometry">
            <mxRectangle x="270" y="230" width="40" height="80" as="alternateBounds" />
          </mxGeometry>
        </mxCell>
        <mxCell id="7E1r3Ql1fIFvwaNYg_f9-38" value="&lt;font color=&quot;#9933ff&quot; data-font-src=&quot;https://fonts.googleapis.com/css?family=Permanent+Marker&quot; face=&quot;Permanent Marker&quot; style=&quot;font-size: 14px;&quot;&gt;&lt;br style=&quot;font-size: 14px;&quot;&gt;Sincroniza la &lt;br style=&quot;font-size: 14px;&quot;&gt;&lt;br style=&quot;font-size: 14px;&quot;&gt;DB&amp;nbsp; =&amp;gt;&amp;nbsp; Server&lt;/font&gt;" style="text;html=1;align=center;verticalAlign=middle;resizable=0;points=[];autosize=1;strokeColor=none;fillColor=none;fontFamily=Comic Sans MS;fontSize=14;rounded=1;" vertex="1" parent="7E1r3Ql1fIFvwaNYg_f9-37">
          <mxGeometry x="20" y="20" width="120" height="80" as="geometry" />
        </mxCell>
        <mxCell id="7E1r3Ql1fIFvwaNYg_f9-42" value="" style="edgeStyle=orthogonalEdgeStyle;rounded=1;orthogonalLoop=1;jettySize=auto;html=1;entryX=1;entryY=0.5;entryDx=0;entryDy=0;exitX=0.065;exitY=0.3;exitDx=0;exitDy=0;exitPerimeter=0;" edge="1" parent="1" source="7E1r3Ql1fIFvwaNYg_f9-44" target="7E1r3Ql1fIFvwaNYg_f9-37">
          <mxGeometry relative="1" as="geometry">
            <mxPoint x="500" y="780" as="sourcePoint" />
            <mxPoint x="475" y="600" as="targetPoint" />
          </mxGeometry>
        </mxCell>
        <mxCell id="7E1r3Ql1fIFvwaNYg_f9-44" value="DB.JS&lt;br&gt;" style="swimlane;horizontal=0;whiteSpace=wrap;html=1;labelBackgroundColor=none;labelBorderColor=#4C0099;fillColor=#60a917;strokeColor=#2D7600;gradientDirection=east;swimlaneFillColor=#000000;rounded=1;fontColor=#ffffff;gradientColor=#000000;arcSize=50;" vertex="1" parent="1">
          <mxGeometry x="555" y="710" width="215" height="190" as="geometry" />
        </mxCell>
        <mxCell id="7E1r3Ql1fIFvwaNYg_f9-59" value="&lt;div style=&quot;text-align: left;&quot;&gt;&lt;font face=&quot;Permanent Marker&quot; color=&quot;#00ff00&quot;&gt;&lt;span style=&quot;font-size: 14px;&quot;&gt;&lt;br&gt;&lt;/span&gt;&lt;/font&gt;&lt;/div&gt;&lt;font color=&quot;#00ff00&quot; data-font-src=&quot;https://fonts.googleapis.com/css?family=Permanent+Marker&quot; face=&quot;Permanent Marker&quot; style=&quot;font-size: 14px;&quot;&gt;&lt;div style=&quot;text-align: left;&quot;&gt;&lt;span style=&quot;background-color: initial;&quot;&gt;*Creamos una constante&lt;/span&gt;&lt;/div&gt;&lt;div style=&quot;text-align: left;&quot;&gt;&lt;span style=&quot;background-color: initial;&quot;&gt;&amp;nbsp; donde guardaremos&amp;nbsp;&lt;/span&gt;&lt;/div&gt;&lt;div style=&quot;text-align: left;&quot;&gt;&lt;span style=&quot;background-color: initial;&quot;&gt;&amp;nbsp; todos los modelos&amp;nbsp;&lt;/span&gt;&lt;/div&gt;&lt;div style=&quot;text-align: left;&quot;&gt;&lt;span style=&quot;background-color: initial;&quot;&gt;&amp;nbsp; que vamos a crear.&lt;/span&gt;&lt;/div&gt;&lt;div style=&quot;text-align: left;&quot;&gt;&lt;span style=&quot;background-color: initial;&quot;&gt;*Sequaliza los datos&lt;/span&gt;&lt;/div&gt;&lt;div style=&quot;text-align: left;&quot;&gt;&lt;span style=&quot;background-color: initial;&quot;&gt;&amp;nbsp; de los&amp;nbsp;&lt;/span&gt;&lt;u style=&quot;background-color: initial;&quot;&gt;&lt;i&gt;&lt;b&gt;models&amp;nbsp;&lt;/b&gt;&lt;/i&gt;&lt;/u&gt;&lt;/div&gt;&lt;div style=&quot;text-align: left;&quot;&gt;*Nos permite crear&amp;nbsp;&lt;br style=&quot;color: rgb(255, 124, 115);&quot;&gt;&lt;span style=&quot;color: rgb(255, 124, 115);&quot;&gt;&amp;nbsp;&lt;/span&gt; las tablas de&amp;nbsp;R-E&lt;br&gt;&lt;/div&gt;&lt;/font&gt;" style="text;html=1;align=center;verticalAlign=middle;resizable=0;points=[];autosize=1;strokeColor=none;fillColor=none;rounded=1;shadow=1;" vertex="1" parent="7E1r3Ql1fIFvwaNYg_f9-44">
          <mxGeometry x="20" y="5" width="190" height="170" as="geometry" />
        </mxCell>
        <mxCell id="7E1r3Ql1fIFvwaNYg_f9-46" value="SERVER.JS&lt;br style=&quot;font-size: 12px;&quot;&gt;" style="swimlane;horizontal=0;whiteSpace=wrap;html=1;labelBackgroundColor=none;labelBorderColor=#4C0099;fillColor=#FF0000;strokeColor=#ae4132;gradientDirection=east;swimlaneFillColor=#000000;rounded=1;arcSize=50;gradientColor=#1A1A1A;fontSize=12;" vertex="1" parent="1">
          <mxGeometry x="110" y="680" width="145" height="190" as="geometry" />
        </mxCell>
        <mxCell id="7E1r3Ql1fIFvwaNYg_f9-47" value="&lt;font style=&quot;font-size: 14px;&quot;&gt;&lt;span style=&quot;font-size: 14px;&quot;&gt;Se configura&amp;nbsp;&lt;br style=&quot;font-size: 14px;&quot;&gt;express ,&amp;nbsp;&lt;br style=&quot;font-size: 14px;&quot;&gt;libreria la cual&lt;br style=&quot;font-size: 14px;&quot;&gt;nos conecta a&lt;br style=&quot;font-size: 14px;&quot;&gt;internet&lt;br style=&quot;font-size: 14px;&quot;&gt;(Api)&lt;br style=&quot;font-size: 14px;&quot;&gt;&lt;/span&gt;&lt;/font&gt;" style="text;html=1;align=center;verticalAlign=middle;resizable=0;points=[];autosize=1;strokeColor=none;fillColor=none;fontSize=14;fontFamily=Permanent Marker;fontSource=https%3A%2F%2Ffonts.googleapis.com%2Fcss%3Ffamily%3DPermanent%2BMarker;fontColor=#FF6666;rounded=1;" vertex="1" parent="7E1r3Ql1fIFvwaNYg_f9-46">
          <mxGeometry x="15" y="30" width="130" height="110" as="geometry" />
        </mxCell>
        <mxCell id="7E1r3Ql1fIFvwaNYg_f9-48" value="CARPETA:CONTROLLERS&lt;br&gt;" style="swimlane;horizontal=0;whiteSpace=wrap;html=1;labelBackgroundColor=none;labelBorderColor=#4C0099;fillColor=#00FFFF;fontColor=#ffffff;strokeColor=#006EAF;gradientDirection=east;swimlaneFillColor=#000000;gradientColor=#000000;rounded=1;arcSize=50;" vertex="1" parent="1">
          <mxGeometry x="350" y="460" width="130" height="180" as="geometry" />
        </mxCell>
        <mxCell id="7E1r3Ql1fIFvwaNYg_f9-49" value="*Se crea&amp;nbsp;&lt;br&gt;un archivo&lt;br style=&quot;font-size: 14px;&quot;&gt;por cada&amp;nbsp;&lt;br style=&quot;font-size: 14px;&quot;&gt;funcionalidad" style="text;html=1;align=left;verticalAlign=middle;resizable=0;points=[];autosize=1;strokeColor=none;fillColor=none;fontSize=14;fontFamily=Permanent Marker;fontSource=https%3A%2F%2Ffonts.googleapis.com%2Fcss%3Ffamily%3DPermanent%2BMarker;fontColor=#00FFFF;rounded=1;" vertex="1" parent="7E1r3Ql1fIFvwaNYg_f9-48">
          <mxGeometry x="30" y="45" width="120" height="80" as="geometry" />
        </mxCell>
        <mxCell id="7E1r3Ql1fIFvwaNYg_f9-50" value="CARPETA:MODELS" style="swimlane;horizontal=0;whiteSpace=wrap;html=1;labelBackgroundColor=none;labelBorderColor=#4C0099;fillColor=#0050ef;fontColor=#ffffff;strokeColor=#001DBC;gradientDirection=east;swimlaneFillColor=#000000;gradientColor=#000000;rounded=1;arcSize=50;glass=0;shadow=0;swimlaneLine=1;" vertex="1" parent="1">
          <mxGeometry x="580" y="460" width="130" height="180" as="geometry" />
        </mxCell>
        <mxCell id="7E1r3Ql1fIFvwaNYg_f9-51" value="&lt;font color=&quot;#0066cc&quot; data-font-src=&quot;https://fonts.googleapis.com/css?family=Permanent+Marker&quot; face=&quot;Permanent Marker&quot; style=&quot;font-size: 14px;&quot;&gt;*Se especifica &lt;br&gt;&amp;nbsp;cada&amp;nbsp;modelo&lt;br&gt;&amp;nbsp;de la pagina&lt;br&gt;&lt;/font&gt;" style="text;html=1;align=left;verticalAlign=middle;resizable=0;points=[];autosize=1;strokeColor=none;fillColor=none;rounded=1;arcSize=50;" vertex="1" parent="7E1r3Ql1fIFvwaNYg_f9-50">
          <mxGeometry x="30" y="45" width="120" height="70" as="geometry" />
        </mxCell>
        <mxCell id="7E1r3Ql1fIFvwaNYg_f9-52" value="ROUTES.JS" style="swimlane;horizontal=0;whiteSpace=wrap;html=1;labelBackgroundColor=none;labelBorderColor=#4C0099;fillColor=#000000;strokeColor=#b85450;gradientColor=#FF6666;gradientDirection=west;swimlaneFillColor=#000000;rounded=1;arcSize=50;" vertex="1" parent="1">
          <mxGeometry x="130" y="450" width="150" height="200" as="geometry" />
        </mxCell>
        <mxCell id="7E1r3Ql1fIFvwaNYg_f9-53" value="&lt;font color=&quot;#ff7c73&quot; data-font-src=&quot;https://fonts.googleapis.com/css?family=Permanent+Marker&quot; face=&quot;Permanent Marker&quot; style=&quot;font-size: 14px;&quot;&gt;*Nos permite &lt;br&gt;&amp;nbsp; &amp;nbsp;relacionar&amp;nbsp;&amp;nbsp;&lt;br&gt;&amp;nbsp; cada ruta de &lt;br&gt;&amp;nbsp;la&amp;nbsp;url con sus&lt;br&gt;funcionalidades&lt;br&gt;&lt;/font&gt;" style="text;html=1;align=left;verticalAlign=middle;resizable=0;points=[];autosize=1;strokeColor=none;fillColor=none;rounded=1;" vertex="1" parent="7E1r3Ql1fIFvwaNYg_f9-52">
          <mxGeometry x="30" y="40" width="130" height="100" as="geometry" />
        </mxCell>
        <mxCell id="7E1r3Ql1fIFvwaNYg_f9-67" value="" style="edgeStyle=orthogonalEdgeStyle;rounded=1;orthogonalLoop=1;jettySize=auto;html=1;" edge="1" parent="1" target="7E1r3Ql1fIFvwaNYg_f9-71">
          <mxGeometry relative="1" as="geometry">
            <mxPoint x="130" y="570" as="sourcePoint" />
            <mxPoint x="50" y="630" as="targetPoint" />
          </mxGeometry>
        </mxCell>
        <mxCell id="7E1r3Ql1fIFvwaNYg_f9-68" value="" style="edgeStyle=orthogonalEdgeStyle;rounded=1;orthogonalLoop=1;jettySize=auto;html=1;exitX=0.5;exitY=1;exitDx=0;exitDy=0;entryX=0.647;entryY=0.006;entryDx=0;entryDy=0;entryPerimeter=0;strokeColor=#FFFFFF;" edge="1" parent="1" source="7E1r3Ql1fIFvwaNYg_f9-50" target="7E1r3Ql1fIFvwaNYg_f9-59">
          <mxGeometry relative="1" as="geometry">
            <mxPoint x="471" y="670" as="sourcePoint" />
            <mxPoint x="651" y="727" as="targetPoint" />
          </mxGeometry>
        </mxCell>
        <mxCell id="7E1r3Ql1fIFvwaNYg_f9-71" value="FRONT&lt;br&gt;" style="ellipse;shape=cloud;whiteSpace=wrap;html=1;rounded=1;" vertex="1" parent="1">
          <mxGeometry y="460" width="120" height="80" as="geometry" />
        </mxCell>
        <mxCell id="7E1r3Ql1fIFvwaNYg_f9-74" value="" style="edgeStyle=orthogonalEdgeStyle;rounded=1;orthogonalLoop=1;jettySize=auto;html=1;entryX=1;entryY=0.75;entryDx=0;entryDy=0;" edge="1" parent="1" target="7E1r3Ql1fIFvwaNYg_f9-48">
          <mxGeometry relative="1" as="geometry">
            <mxPoint x="590" y="710" as="sourcePoint" />
            <mxPoint x="718" y="736" as="targetPoint" />
            <Array as="points">
              <mxPoint x="590" y="660" />
              <mxPoint x="490" y="660" />
              <mxPoint x="490" y="595" />
            </Array>
          </mxGeometry>
        </mxCell>
        <mxCell id="7E1r3Ql1fIFvwaNYg_f9-75" value="" style="edgeStyle=orthogonalEdgeStyle;rounded=1;orthogonalLoop=1;jettySize=auto;html=1;exitX=0.008;exitY=0.7;exitDx=0;exitDy=0;exitPerimeter=0;entryX=0.923;entryY=0.2;entryDx=0;entryDy=0;entryPerimeter=0;" edge="1" parent="1" source="7E1r3Ql1fIFvwaNYg_f9-48" target="7E1r3Ql1fIFvwaNYg_f9-53">
          <mxGeometry relative="1" as="geometry">
            <mxPoint x="665" y="680" as="sourcePoint" />
            <mxPoint x="728" y="746" as="targetPoint" />
          </mxGeometry>
        </mxCell>
        <mxCell id="7E1r3Ql1fIFvwaNYg_f9-78" value="" style="edgeStyle=orthogonalEdgeStyle;rounded=1;orthogonalLoop=1;jettySize=auto;html=1;exitX=1.015;exitY=0.209;exitDx=0;exitDy=0;exitPerimeter=0;entryX=0.007;entryY=0.305;entryDx=0;entryDy=0;entryPerimeter=0;" edge="1" parent="1" source="7E1r3Ql1fIFvwaNYg_f9-47" target="7E1r3Ql1fIFvwaNYg_f9-37">
          <mxGeometry relative="1" as="geometry">
            <mxPoint x="675" y="690" as="sourcePoint" />
            <mxPoint x="330" y="720" as="targetPoint" />
          </mxGeometry>
        </mxCell>
        <mxCell id="7E1r3Ql1fIFvwaNYg_f9-82" value="BACKEND" style="ellipse;shape=cloud;fillColor=#67AB9F;labelBorderColor=none;shadow=0;whiteSpace=wrap;rounded=1;sketch=1;curveFitting=1;jiggle=2;strokeColor=#10739e;labelBackgroundColor=none;html=1;fontStyle=2;fontFamily=Comic Sans MS;spacing=2;fontSize=14;gradientColor=none;fontColor=#FFFFFF;" vertex="1" parent="1">
          <mxGeometry x="327.5" y="800" width="152.5" height="100" as="geometry" />
        </mxCell>
      </root>
    </mxGraphModel>
  </diagram>
</mxfile>
